<svg width="56" height="32" viewBox="0 0 56 32" fill="none" xmlns="http://www.w3.org/2000/svg">
<path d="M42.6922 26.0495C40.9155 24.6817 40.0126 22.7628 39.0567 20.7312C37.7414 17.9361 36.3833 15.0511 32.6417 13.7482L34.7627 8.40791C34.7716 8.38553 34.7792 8.36266 34.7855 8.33941C35.2392 6.6506 34.4004 4.91366 32.878 4.18129L33.9012 0.806416C34.0014 0.476104 33.8148 0.127167 33.4845 0.0270419C33.1542 -0.0730829 32.8052 0.113479 32.705 0.443791L31.6744 3.84316C30.4222 3.7191 29.2092 4.26872 28.4679 5.24454C27.7265 4.26866 26.5137 3.71904 25.2614 3.8431L24.2308 0.443791C24.1307 0.113542 23.7817 -0.0730829 23.4514 0.0270419C23.1211 0.127229 22.9344 0.476166 23.0346 0.806416L24.0579 4.18135C22.5364 4.91366 21.6984 6.65053 22.1521 8.33941C22.1584 8.36259 22.1659 8.38541 22.1748 8.40778L24.2942 13.7482C20.5526 15.0511 19.1944 17.9361 17.8792 20.7312C16.9233 22.7628 16.0203 24.6817 14.2437 26.0495C14.0798 26.1757 13.989 26.3748 14.0011 26.5813C14.0131 26.7878 14.1266 26.9749 14.3041 27.081C15.2278 27.6337 16.1969 28.1508 17.1924 28.6243C17.0381 28.8474 16.8752 29.0706 16.7021 29.2936C16.5768 29.4551 16.5383 29.6677 16.5992 29.8628C16.6601 30.0579 16.8124 30.211 17.0074 30.2726C19.2682 30.9875 21.6323 31.4801 24.0355 31.7511C24.0369 31.7513 24.0384 31.7515 24.0399 31.7517C25.5061 31.917 26.987 32 28.4679 32C32.3773 32 36.2867 31.4243 39.9284 30.2727C40.1232 30.2111 40.2757 30.0581 40.3365 29.863C40.3974 29.6679 40.3591 29.4554 40.2338 29.2939C40.0634 29.0741 39.9006 28.8509 39.7437 28.6241C40.7391 28.1506 41.7082 27.6336 42.6317 27.081C42.8092 26.9748 42.9227 26.7877 42.9347 26.5813C42.9468 26.3748 42.856 26.1757 42.6922 26.0495ZM24.9988 5.1581C25.0013 5.15735 25.0039 5.15685 25.0064 5.1561C25.007 5.15591 25.0076 5.15566 25.0081 5.15547C26.2488 4.82254 27.5297 5.55985 27.8644 6.80066C27.938 7.07335 28.1854 7.26285 28.4678 7.26285C28.7502 7.26285 28.9976 7.07335 29.0712 6.80066C29.4059 5.55991 30.6867 4.82235 31.9277 5.15554C31.9282 5.15572 31.9287 5.15591 31.9292 5.1561C31.9316 5.15679 31.934 5.15729 31.9364 5.15797C33.1639 5.49228 33.8982 6.75291 33.5868 7.98222C33.5868 7.98222 31.3377 13.6349 31.3305 13.6518H25.605C25.5979 13.6349 23.3505 7.98228 23.3505 7.98228C23.0391 6.75285 23.7722 5.49241 24.9988 5.1581ZM15.7009 26.4464C17.2684 24.9646 18.1521 23.0868 19.0101 21.2634C19.8967 19.3792 20.7507 17.565 22.3191 16.261C21.1329 17.9547 20.5939 19.8683 20.0341 21.8569C19.5092 23.7219 18.9699 25.6357 17.8644 27.5599C17.1258 27.2125 16.4018 26.8403 15.7009 26.4464ZM25.2141 30.6134C26.8639 27.9997 27.8892 24.9944 28.4679 22.4713C29.0465 24.9945 30.0718 27.9997 31.7217 30.6134C29.5607 30.7974 27.375 30.7974 25.2141 30.6134ZM39.0719 27.5596C38.6063 26.7478 38.2045 25.8736 37.8462 24.8979C37.7272 24.5738 37.368 24.4076 37.044 24.5266C36.72 24.6456 36.5538 25.0048 36.6728 25.3288C37.2302 26.8466 37.8877 28.1396 38.7139 29.3339C36.8999 29.8565 35.024 30.2338 33.1205 30.4674C30.1129 26.0539 29.0929 20.0334 29.0929 17.912C29.0929 17.5668 28.813 17.287 28.4679 17.287C28.1227 17.287 27.8429 17.5668 27.8429 17.912C27.8429 20.0333 26.8228 26.0539 23.8151 30.4674C21.9115 30.2338 20.0354 29.8564 18.2213 29.3338C18.3653 29.1253 18.5016 28.9166 18.6317 28.7081C18.6353 28.7028 18.6386 28.6973 18.642 28.6918C20.0407 26.4448 20.6706 24.2086 21.2372 22.1956C22.0346 19.3626 22.7233 16.9158 25.2427 15.0312C25.3002 14.9883 25.3509 14.9451 25.3966 14.9017H31.5389C31.5843 14.9448 31.6347 14.9878 31.6918 15.0304C33.6502 16.4963 34.4513 18.2621 35.0252 19.9519C35.1362 20.2787 35.4912 20.4536 35.818 20.3426C36.1448 20.2316 36.3197 19.8767 36.2087 19.5499C35.8523 18.5005 35.3874 17.3598 34.613 16.258C36.1837 17.5623 37.0383 19.3778 37.9255 21.2635C38.7835 23.0869 39.6672 24.9648 41.2347 26.4465C40.5342 26.8401 39.8103 27.2123 39.0719 27.5596Z" fill="#B79265"/>
<path d="M36.1348 21.8739C35.8261 22.0283 35.7009 22.4037 35.8553 22.7124L35.8571 22.716C35.9663 22.9346 36.1859 23.0602 36.4144 23.0602C36.5087 23.0602 36.6045 23.0388 36.6947 22.9938C37.0034 22.8394 37.1276 22.4623 36.9733 22.1535C36.8189 21.8448 36.4436 21.7196 36.1348 21.8739Z" fill="#B79265"/>
</svg>
