<svg width="56" height="32" viewBox="0 0 56 32" fill="none" xmlns="http://www.w3.org/2000/svg">
<path d="M24.1096 6.36612L27.7069 9.8405C27.8214 9.95105 27.9692 10.0063 28.1172 10.0063C28.265 10.0063 28.4129 9.95105 28.5273 9.84062L32.1264 6.36624C32.1315 6.36128 32.1366 6.3562 32.1415 6.35107C33.351 5.09556 33.3509 3.05427 32.1414 1.80088C31.614 1.25368 30.8918 0.970512 30.1083 1.00246C29.3755 1.0327 28.6684 1.33305 28.1181 1.84742C27.5669 1.33276 26.8602 1.0327 26.1278 1.00246C25.3443 0.970335 24.622 1.25362 24.0949 1.80059C22.8852 3.05427 22.8851 5.09556 24.0945 6.35107C24.0995 6.35614 24.1045 6.36116 24.1096 6.36612ZM24.9451 2.62045C25.6103 1.93033 26.6924 2.13076 27.3137 2.71222L27.3466 2.74299C27.5856 2.96698 27.7921 3.1605 28.1175 3.1605C28.4422 3.1605 28.6491 2.9674 28.8887 2.74381L28.9226 2.71216C29.5438 2.13082 30.6261 1.93027 31.2913 2.62068C32.0627 3.42011 32.0648 4.7205 31.2979 5.52441L28.1174 8.5948L24.9382 5.52436C24.1713 4.7205 24.1734 3.42011 24.9451 2.62045Z" fill="#B79265"/>
<path d="M43.2361 26.3924C43.1842 23.3072 40.6672 22.6281 38.6448 22.0824C38.3762 22.0099 38.1172 21.94 37.8677 21.8666V20.7517C39.4639 19.699 40.6633 17.8415 40.6633 16.2254V13.5735C40.6633 10.6892 38.3183 8.34269 35.4358 8.34269C32.4435 8.34269 30.0996 10.6403 30.0996 13.5735V16.2254C30.0996 17.8436 31.2987 19.7005 32.8951 20.7523V21.8666C32.6454 21.94 32.3864 22.01 32.1176 22.0825C31.9389 22.1307 31.7562 22.18 31.5718 22.2319C31.5657 22.2334 31.5598 22.2353 31.5538 22.237C31.5503 22.2379 31.5468 22.2388 31.5434 22.2399C30.2518 22.6047 28.8768 23.1015 28.1172 24.2664C27.9613 24.0273 27.7797 23.816 27.578 23.6285L26.4597 16.1198V13.9521C26.4597 10.8591 23.9449 8.34269 20.854 8.34269C17.7629 8.34269 15.2482 10.8591 15.2482 13.9521V16.1198L14.1297 23.6287C13.4686 24.243 13.0209 25.1097 13 26.3927V30.4094C13 30.7356 13.2644 30.9999 13.5905 30.9999H18.2023C18.5284 30.9999 18.7929 30.7356 18.7929 30.4094C18.7929 30.0832 18.5284 29.8188 18.2023 29.8188H16.9264V27.1545C16.9264 27.0437 16.9171 26.6885 16.92 26.6361C16.9544 26.6073 17.0339 26.5507 17.217 26.4466C18.0145 25.993 19.7189 26.0836 20.4362 26.8013C20.5469 26.9122 20.6972 26.9745 20.8539 26.9745C21.0106 26.9745 21.1609 26.9122 21.2716 26.8013C21.9889 26.0836 23.6931 25.993 24.4907 26.4466C24.6739 26.5507 24.7533 26.6073 24.7877 26.6361C24.7906 26.6885 24.7813 29.8188 24.7813 29.8188H23.5055C23.1794 29.8188 22.9149 30.0832 22.9149 30.4094C22.9149 30.7356 23.1794 30.9999 23.5055 30.9999H35.3788C35.3792 30.9999 35.3796 31 35.38 31C35.3802 31 35.3804 30.9999 35.3806 30.9999C35.3808 30.9999 42.6456 30.9999 42.6456 30.9999C42.9717 30.9999 43.2362 30.7355 43.2362 30.4093V26.4022C43.2361 26.399 43.2361 26.3957 43.2361 26.3924ZM26.2582 22.7845C25.5665 22.4731 24.8131 22.2698 24.118 22.0823C23.8495 22.0098 23.5905 21.94 23.341 21.8666V20.909C24.3623 20.1778 25.1841 19.0936 25.5455 17.9991L26.2582 22.7845ZM21.7246 20.4529C21.0738 20.6946 20.6356 20.695 19.9883 20.4546C18.4997 19.9013 17.144 18.1794 17.144 16.8419V16.1089C17.9721 15.6043 18.5877 15.1071 19.0892 14.5391C20.4861 15.4484 22.3215 16.121 24.5637 16.5463V16.8419C24.5637 18.1776 23.2102 19.8989 21.7246 20.4529ZM16.4292 13.9521C16.4292 11.5103 18.4141 9.52379 20.8539 9.52379C23.2937 9.52379 25.2785 11.5103 25.2785 13.9521V15.4746C22.7205 15.045 20.721 14.3036 19.3282 13.2673C19.2257 13.191 19.1019 13.1505 18.9756 13.1505C18.9469 13.1505 18.918 13.1527 18.8892 13.1569C18.734 13.1799 18.5943 13.2637 18.501 13.3897C18.0757 13.9643 17.5345 14.5031 16.4292 15.1615V13.9521ZM16.1624 17.9986C16.5237 19.0942 17.346 20.1787 18.3684 20.9101V21.8666C18.1189 21.94 17.8599 22.0098 17.5914 22.0822C16.8958 22.2698 16.1417 22.4732 15.4495 22.7847L16.1624 17.9986ZM27.5266 29.8188H25.9624V27.1544C25.9624 27.0554 25.9647 26.969 25.9667 26.8924C25.9858 26.1673 25.8652 25.8696 25.0746 25.4198C24.0013 24.8094 22.0715 24.8125 20.8539 25.6255C19.6364 24.8125 17.7066 24.8094 16.6331 25.4198C15.8424 25.8695 15.7218 26.1672 15.741 26.8924C15.743 26.9689 15.7453 27.0554 15.7453 27.1543V29.8187H14.1811V26.4072C14.2164 24.3625 15.6095 23.8399 17.899 23.2225C18.3133 23.1107 18.7417 22.9952 19.1443 22.8621C19.3862 22.7821 19.5495 22.5561 19.5495 22.3013V21.5508C19.5586 21.5543 19.5677 21.5582 19.5769 21.5617C20.0297 21.7299 20.4412 21.814 20.853 21.814C21.2664 21.814 21.6802 21.7293 22.1366 21.5597C22.1444 21.5568 22.152 21.5534 22.1599 21.5504V22.3013C22.1599 22.556 22.3232 22.782 22.5649 22.862C22.9674 22.9952 23.3959 23.1107 23.8102 23.2225C26.0986 23.84 27.4912 24.3628 27.5266 26.407V29.8188ZM38.2097 23.1879L37.3713 24.9253L36.2751 23.9363L37.4122 22.963C37.6754 23.0426 37.9443 23.1161 38.2097 23.1879ZM35.3835 23.1448L34.0762 22.0087V21.3466C34.538 21.5114 34.961 21.5948 35.3833 21.5948C35.8052 21.5948 36.2271 21.5115 36.6866 21.3469V22.0294L35.3835 23.1448ZM35.4358 9.52379C37.6669 9.52379 39.4822 11.3405 39.4822 13.5735V13.5934C36.8455 14.7931 35.7886 14.2834 34.6732 13.744C33.8107 13.3269 32.8485 12.8627 31.2992 13.1875C31.4928 11.1043 33.2397 9.52379 35.4358 9.52379ZM31.2807 16.2254V14.4047C32.5925 14.0502 33.2929 14.3884 34.159 14.8073C34.8643 15.1484 35.6205 15.5142 36.7078 15.5141C37.449 15.5141 38.3445 15.3438 39.4821 14.8798V16.2254C39.4821 16.9147 39.1499 17.7444 38.5707 18.5017C37.9703 19.2869 37.1605 19.9108 36.3487 20.2138C35.6283 20.4834 35.141 20.4838 34.4175 20.2149C32.7758 19.6057 31.2807 17.7042 31.2807 16.2254ZM33.3679 22.958L34.49 23.9331L33.3902 24.9261L33.037 24.1941L33.0037 24.1236C33.0012 24.1182 32.9981 24.1133 32.9954 24.1081L32.5517 23.1886C32.8233 23.1151 33.0989 23.0396 33.3679 22.958ZM28.7077 29.8188V26.4103C28.7334 24.8683 29.5308 24.1912 30.9018 23.6868L30.0761 27.2645C30.0199 27.5083 30.1233 27.761 30.3343 27.8954L33.354 29.8188H28.7077ZM31.3208 27.1235L31.9091 24.5744L33.946 28.7955L31.3208 27.1235ZM33.925 26.0344L35.3807 24.7202L36.8365 26.0335L35.3805 29.0505L33.925 26.0344ZM38.8524 24.5736L39.4417 27.1235L36.8148 28.7961L38.8524 24.5736ZM42.055 29.8188H37.4076L40.4284 27.8955C40.6394 27.7611 40.7429 27.5081 40.6865 27.2643L39.8597 23.6868C41.2297 24.1909 42.0275 24.8673 42.055 26.4074V29.8188Z" fill="#B79265"/>
<path d="M20.8539 29.8188C20.5278 29.8188 20.2633 30.0832 20.2633 30.4093C20.2633 30.7355 20.5278 30.9999 20.8539 30.9999H20.8573C21.1834 30.9999 21.4462 30.7355 21.4462 30.4093C21.4462 30.0832 21.1801 29.8188 20.8539 29.8188Z" fill="#B79265"/>
</svg>
