<svg width="42" height="40" viewBox="0 0 42 40" fill="none" xmlns="http://www.w3.org/2000/svg">
<path d="M38.3563 8.25914H34.0862C34.65 6.77609 34.3836 5.1121 33.2911 3.80296C32.4382 2.78234 31.1943 2.11656 29.7885 1.9282C28.392 1.74132 26.9932 2.04726 25.8501 2.79031C25.2067 3.2089 24.5848 3.88445 24.0396 4.66976C23.1982 3.95859 22.1198 3.55367 20.9989 3.55367C19.8788 3.55367 18.8009 3.95882 17.9597 4.67031C17.4143 3.88429 16.7926 3.20843 16.1497 2.79015C15.0069 2.04734 13.608 1.7414 12.2105 1.92828C10.804 2.11656 9.55961 2.78234 8.70641 3.80335C7.61461 5.11164 7.34891 6.77562 7.91352 8.25914H3.64367C2.18594 8.25914 1 9.44461 1 10.9018V16.0698C1 16.5013 1.34977 16.8511 1.78125 16.8511H2.6675V19.9763C2.6675 20.4078 3.01727 20.7576 3.44875 20.7576C3.88023 20.7576 4.23 20.4078 4.23 19.9763V16.8511H14.2594C14.3413 17.848 14.7485 18.8212 15.4827 19.5824C15.4891 19.5891 15.4958 19.5958 15.5026 19.6023L17.6443 21.6683V30.8792L17.5679 30.9621C17.2418 31.3126 16.9269 31.5806 16.1025 31.5806C15.2782 31.5806 14.9632 31.3125 14.6384 30.9635L13.8154 30.0745C13.2756 29.4945 12.5859 28.9579 11.2062 28.9579C9.81789 28.9579 9.10742 29.5231 8.59625 30.0752L7.77305 30.9621C7.44695 31.3126 7.13203 31.5806 6.30766 31.5806C5.48539 31.5806 5.17055 31.3125 4.84508 30.9627L4.22992 30.3V26.988C4.22992 26.5565 3.88016 26.2067 3.44867 26.2067C3.01719 26.2067 2.66742 26.5565 2.66742 26.988V35.7703C2.66742 37.0688 3.72523 38.1252 5.02547 38.1252H36.9744C38.2734 38.1252 39.3302 37.0688 39.3302 35.7703V16.8511H40.2188C40.6502 16.8511 41 16.5013 41 16.0698V10.9018C41 9.44461 39.8141 8.25914 38.3563 8.25914ZM26.7019 4.10023C28.4173 2.98507 30.8354 3.30117 32.0917 4.80453C32.9431 5.82476 33.0297 7.17336 32.3452 8.25914H23.9729C24.4844 6.71617 25.6159 4.80687 26.7019 4.10023ZM24.5936 9.82164V12.3396C24.318 12.289 24.033 12.2678 23.7415 12.2797C22.7392 12.3208 21.7717 12.7314 21.0162 13.437L20.999 13.4531L20.9812 13.4366C20.2277 12.7317 19.2604 12.3209 18.2575 12.2798C17.9663 12.2677 17.6816 12.2887 17.4065 12.3392V9.82172H24.5936V9.82164ZM20.9989 5.11617C21.8356 5.11617 22.6361 5.455 23.2204 6.03867C22.8339 6.78875 22.529 7.5607 22.3416 8.25914H19.6579C19.4701 7.56086 19.1649 6.78921 18.7787 6.03953C19.3629 5.45539 20.1629 5.11617 20.9989 5.11617ZM9.9057 4.80492C11.1627 3.3007 13.5817 2.9846 15.2979 4.10007C16.382 4.80546 17.5134 6.71507 18.0263 8.25922H9.65469C8.96945 7.17273 9.05508 5.82414 9.9057 4.80492ZM15.4827 13.3673C14.9497 13.9199 14.5896 14.5845 14.4004 15.2886H2.5625V10.9018C2.5625 10.3062 3.0475 9.82164 3.64367 9.82164H15.844V13.0422C15.7176 13.1418 15.5965 13.2495 15.4827 13.3673ZM16.5982 18.4881C16.0006 17.8627 15.739 17.0203 15.8129 16.2048C15.8181 16.1749 15.8214 16.1445 15.8231 16.1134C15.8971 15.5057 16.1578 14.918 16.6069 14.4525C16.7274 14.3277 16.8579 14.2242 16.9953 14.1395C17.0003 14.1368 17.0051 14.1337 17.0101 14.1309C17.9315 13.5744 19.1642 13.8762 19.9145 14.578L19.9611 14.6216C20.2853 14.9247 20.5654 15.1866 20.9998 15.1866C21.4352 15.1866 21.7146 14.9243 22.0382 14.6205L22.0836 14.578C22.9504 13.7687 24.4623 13.4909 25.3927 14.452C25.8341 14.9095 26.0939 15.4848 26.1731 16.0812C26.1738 16.1317 26.179 16.1812 26.1889 16.229C26.2555 17.037 25.9936 17.8689 25.402 18.488L20.9991 22.7331L16.5982 18.4881ZM22.7909 36.5627H19.2069V23.1755L20.4566 24.3809C20.6079 24.5269 20.8034 24.5998 20.9989 24.5998C21.1944 24.5998 21.3898 24.5269 21.5412 24.381L22.7909 23.176V36.5627ZM4.23 35.7704V32.511C4.7025 32.8663 5.34063 33.1431 6.30773 33.1431C7.69141 33.1431 8.40328 32.5786 8.91766 32.0258L9.74219 31.1375C10.0659 30.7878 10.3793 30.5204 11.2063 30.5204C12.0305 30.5204 12.3455 30.7885 12.6703 31.1375L13.4933 32.0265C14.0071 32.5787 14.7189 33.1431 16.1026 33.1431C16.7464 33.1431 17.2435 33.0201 17.6444 32.8334V36.5627H5.02555C4.58687 36.5627 4.23 36.2073 4.23 35.7704ZM36.9745 36.5627H24.3534V32.8328C24.7541 33.0197 25.2512 33.1431 25.8952 33.1431C27.2788 33.1431 27.9907 32.5787 28.5052 32.0258L29.3297 31.1375C29.6534 30.7878 29.9667 30.5204 30.7937 30.5204C31.6179 30.5204 31.933 30.7885 32.2578 31.1375L33.0808 32.0265C33.5946 32.5787 34.3064 33.1431 35.6901 33.1431C36.6567 33.1431 37.2948 32.8673 37.7677 32.5125V35.7703C37.7677 36.2073 37.4119 36.5627 36.9745 36.5627ZM37.7677 30.3007L37.1555 30.9621C36.8294 31.3126 36.5143 31.5807 35.6901 31.5807C34.8657 31.5807 34.5508 31.3126 34.226 30.9636L33.403 30.0745C32.8631 29.4946 32.1734 28.958 30.7937 28.958C29.4054 28.958 28.6949 29.5232 28.1838 30.0753L27.3606 30.9621C27.0345 31.3126 26.7195 31.5807 25.8952 31.5807C25.073 31.5807 24.7581 31.3126 24.4324 30.9626L24.3534 30.8776V21.6695L26.4973 19.6024C26.5041 19.5959 26.5108 19.5892 26.5173 19.5824C27.2515 18.8212 27.6587 17.848 27.7405 16.8511H37.7678V30.3007H37.7677ZM39.4375 15.2886H27.5993C27.4099 14.5842 27.0497 13.9193 26.5163 13.3662C26.4027 13.249 26.282 13.1417 26.156 13.0426V9.82164H38.3563C38.9525 9.82164 39.4375 10.3062 39.4375 10.9018V15.2886Z" fill="#B79265"/>
<path d="M3.44873 24.2656C3.88022 24.2656 4.22998 23.9137 4.22998 23.4822C4.22998 23.0507 3.88022 22.7009 3.44873 22.7009C3.01725 22.7009 2.66748 23.0507 2.66748 23.4822V23.4866C2.66748 23.918 3.01725 24.2656 3.44873 24.2656Z" fill="#B79265"/>
</svg>
