<svg width="42" height="40" viewBox="0 0 42 40" fill="none" xmlns="http://www.w3.org/2000/svg">
<path d="M36.2656 34.8696C38.6402 34.8696 40.5652 32.9508 40.5652 30.5839V17.7267C40.5652 15.3598 38.6402 13.441 36.2656 13.441H14.7681C12.3935 13.441 10.4685 15.3598 10.4685 17.7267V30.5839C10.4685 32.9508 12.3935 34.8696 14.7681 34.8696H30.4515M31.9661 13.441V9.15528C31.9661 6.78835 30.0412 4.86957 27.6666 4.86957H6.16902C3.79447 4.86957 1.86951 6.78835 1.86951 9.15528V22.0124C1.86951 24.3794 3.79447 26.2981 6.16902 26.2981H10.4685M29.8164 24.1553C29.8164 26.5222 27.8914 28.441 25.5168 28.441C23.1423 28.441 21.2173 26.5222 21.2173 24.1553C21.2173 21.7883 23.1423 19.8696 25.5168 19.8696C27.8914 19.8696 29.8164 21.7883 29.8164 24.1553Z" stroke="#B79265" stroke-width="2" stroke-linecap="round" stroke-linejoin="round"/>
<path d="M33.2895 34.1227C32.8685 34.3334 32.6979 34.8459 32.9084 35.2673C33.0577 35.5664 33.3588 35.7391 33.6714 35.7391C33.7994 35.7391 33.9295 35.7101 34.0518 35.6489L34.0567 35.6465C34.4777 35.4357 34.6459 34.9244 34.4354 34.503C34.2248 34.0816 33.7105 33.9119 33.2895 34.1227Z" fill="#B79265"/>
<path d="M13.9954 17.651H17.0956C17.7458 17.651 18.2728 17.2435 18.2728 16.7409C18.2728 16.2383 17.7458 15.8308 17.0956 15.8308H13.9954C13.3452 15.8308 12.8182 16.2383 12.8182 16.7409C12.8182 17.2435 13.3452 17.651 13.9954 17.651Z" fill="#B79265"/>
<path d="M5.8135 9.46039H8.91375C9.56389 9.46039 10.0909 9.05295 10.0909 8.55032C10.0909 8.04769 9.56389 7.64026 8.91375 7.64026H5.8135C5.16336 7.64026 4.63635 8.04769 4.63635 8.55032C4.63635 9.05295 5.16336 9.46039 5.8135 9.46039Z" fill="#B79265"/>
<path d="M33.9954 32.212H37.0956C37.7458 32.212 38.2728 31.8046 38.2728 31.3019C38.2728 30.7993 37.7458 30.3919 37.0956 30.3919H33.9954C33.3452 30.3919 32.8182 30.7993 32.8182 31.3019C32.8182 31.8046 33.3452 32.212 33.9954 32.212Z" fill="#B79265"/>
</svg>
