<svg width="56" height="32" viewBox="0 0 56 32" fill="none" xmlns="http://www.w3.org/2000/svg">
<path d="M31.0951 11.0566C31.4259 11.0566 31.694 10.7884 31.694 10.4578V9.79407C31.694 9.46341 31.4259 9.19527 31.0951 9.19527C30.7644 9.19527 30.4963 9.46341 30.4963 9.79407V10.4578C30.4963 10.7885 30.7645 11.0566 31.0951 11.0566Z" fill="#B79265"/>
<path d="M28.3285 11.0566C28.6592 11.0566 28.9273 10.7884 28.9273 10.4578V9.79407C28.9273 9.46341 28.6592 9.19527 28.3285 9.19527C27.9978 9.19527 27.7297 9.46341 27.7297 9.79407V10.4578C27.7297 10.7885 27.9978 11.0566 28.3285 11.0566Z" fill="#B79265"/>
<path d="M25.5635 11.0566C25.8943 11.0566 26.1623 10.7884 26.1623 10.4578V9.79407C26.1623 9.46341 25.8943 9.19527 25.5635 9.19527C25.2328 9.19527 24.9647 9.46341 24.9647 9.79407V10.4578C24.9647 10.7885 25.2328 11.0566 25.5635 11.0566Z" fill="#B79265"/>
<path d="M22.7968 11.0566C23.1275 11.0566 23.3956 10.7884 23.3956 10.4578V9.79407C23.3956 9.46341 23.1275 9.19527 22.7968 9.19527C22.466 9.19527 22.198 9.46341 22.198 9.79407V10.4578C22.198 10.7885 22.466 11.0566 22.7968 11.0566Z" fill="#B79265"/>
<path d="M33.8619 11.0566C34.1926 11.0566 34.4607 10.7884 34.4607 10.4578V9.79407C34.4607 9.46341 34.1926 9.19527 33.8619 9.19527C33.5312 9.19527 33.2631 9.46341 33.2631 9.79407V10.4578C33.2631 10.7885 33.5312 11.0566 33.8619 11.0566Z" fill="#B79265"/>
<path d="M31.0951 14.8623C31.4259 14.8623 31.694 14.5942 31.694 14.2635V13.5981C31.694 13.2675 31.4259 12.9993 31.0951 12.9993C30.7644 12.9993 30.4963 13.2675 30.4963 13.5981V14.2635C30.4963 14.5942 30.7645 14.8623 31.0951 14.8623Z" fill="#B79265"/>
<path d="M28.3285 14.8623C28.6592 14.8623 28.9273 14.5942 28.9273 14.2635V13.5981C28.9273 13.2675 28.6592 12.9993 28.3285 12.9993C27.9978 12.9993 27.7297 13.2675 27.7297 13.5981V14.2635C27.7297 14.5942 27.9978 14.8623 28.3285 14.8623Z" fill="#B79265"/>
<path d="M25.5635 14.8623C25.8943 14.8623 26.1623 14.5942 26.1623 14.2635V13.5981C26.1623 13.2675 25.8943 12.9993 25.5635 12.9993C25.2328 12.9993 24.9647 13.2675 24.9647 13.5981V14.2635C24.9647 14.5942 25.2328 14.8623 25.5635 14.8623Z" fill="#B79265"/>
<path d="M22.7968 14.8623C23.1275 14.8623 23.3956 14.5942 23.3956 14.2635V13.5981C23.3956 13.2675 23.1275 12.9993 22.7968 12.9993C22.466 12.9993 22.198 13.2675 22.198 13.5981V14.2635C22.198 14.5942 22.466 14.8623 22.7968 14.8623Z" fill="#B79265"/>
<path d="M33.8619 14.8623C34.1926 14.8623 34.4607 14.5942 34.4607 14.2635V13.5981C34.4607 13.2675 34.1926 12.9993 33.8619 12.9993C33.5312 12.9993 33.2631 13.2675 33.2631 13.5981V14.2635C33.2631 14.5942 33.5312 14.8623 33.8619 14.8623Z" fill="#B79265"/>
<path d="M42.6271 26.4788H41.9545V12.9968H42.807C43.1377 12.9968 43.4058 12.7287 43.4058 12.398V9.78563C43.4058 9.45497 43.1377 9.18683 42.807 9.18683H37.2257V7.42407H38.0798C38.4105 7.42407 38.6786 7.15593 38.6786 6.82527V4.2112C38.6786 3.88054 38.4105 3.6124 38.0798 3.6124H35.7829V1.5988C35.7829 1.26814 35.5149 1 35.1841 1H21.4729C21.1422 1 20.8741 1.26814 20.8741 1.5988V3.6124H18.5772C18.2465 3.6124 17.9784 3.88054 17.9784 4.2112V6.82527C17.9784 7.15593 18.2465 7.42407 18.5772 7.42407H19.4313V9.18683H13.85C13.5193 9.18683 13.2512 9.45497 13.2512 9.78563V12.398C13.2512 12.7287 13.5193 12.9968 13.85 12.9968H14.7041V26.4788H14.0316C13.4628 26.4788 13 26.9416 13 27.5105V29.9701C13 30.538 13.4628 31 14.0316 31H42.6271C43.1959 31 43.6587 30.538 43.6587 29.9701V27.5105C43.6587 26.9416 43.1959 26.4788 42.6271 26.4788ZM42.2081 10.3844V11.7992H37.2256V10.3844H42.2081ZM37.2257 16.7357V12.9968H40.7569V26.4788H37.2257V20.3413C37.9563 20.0849 38.4834 19.3735 38.4834 18.5377C38.4834 17.7026 37.9563 16.9919 37.2257 16.7357ZM19.176 6.22647V4.81H25.6399C25.9706 4.81 26.2387 4.54186 26.2387 4.2112C26.2387 3.88054 25.9706 3.6124 25.6399 3.6124H22.0717V2.1976H34.5854V3.6124H31.0172C30.6865 3.6124 30.4184 3.88054 30.4184 4.2112C30.4184 4.54186 30.6865 4.81 31.0172 4.81H37.4811V6.22647H19.176ZM36.0281 7.42407V16.6335H20.6289V7.42407H36.0281ZM20.0301 17.8311H36.6269C36.9902 17.8311 37.2858 18.1481 37.2858 18.5377C37.2858 18.9282 36.9902 19.2459 36.6269 19.2459H20.0301C19.6668 19.2459 19.3712 18.9282 19.3712 18.5377C19.3711 18.1481 19.6668 17.8311 20.0301 17.8311ZM32.6686 21.8244H23.9883C23.6576 21.8244 23.3895 22.0925 23.3895 22.4232C23.3895 22.7538 23.6576 23.022 23.9883 23.022H24.5013V26.4788H20.6289V20.4435H36.028V26.4788H32.1573V23.022H32.6686C32.9993 23.022 33.2674 22.7538 33.2674 22.4232C33.2674 22.0925 32.9993 21.8244 32.6686 21.8244ZM30.9598 23.022V26.4788H28.9273V23.022H30.9598ZM27.7297 23.022V26.4788H25.6989V23.022H27.7297ZM19.4313 20.3413V26.4789H15.9017V12.9968H19.4313V16.7357C18.7006 16.9919 18.1735 17.7026 18.1735 18.5377C18.1735 19.3735 18.7007 20.0849 19.4313 20.3413ZM14.4488 11.7992V10.3844H19.4313V11.7992H14.4488ZM42.4611 29.8024H14.1976V27.6764H42.4611V29.8024Z" fill="#B79265"/>
<path d="M28.3285 3.6124C27.9978 3.6124 27.7297 3.88054 27.7297 4.2112C27.7297 4.54186 27.9978 4.81 28.3285 4.81H28.3319C28.6626 4.81 28.929 4.54186 28.929 4.2112C28.929 3.88054 28.6592 3.6124 28.3285 3.6124Z" fill="#B79265"/>
</svg>
