<svg width="56" height="32" viewBox="0 0 56 32" fill="none" xmlns="http://www.w3.org/2000/svg">
<path d="M42.7896 9.12889H41.38V7.71867C41.38 6.77098 40.6091 6 39.6617 6H13.7183C12.7709 6 12 6.77105 12 7.71867V21.1542C12 22.1018 12.7709 22.8728 13.7183 22.8728H15.1262V24.283C15.1262 25.2297 15.897 25.9999 16.8444 25.9999H31.6761C32.0267 25.9999 32.311 25.7156 32.311 25.365C32.311 25.0144 32.0267 24.7301 31.6761 24.7301H16.8445C16.6014 24.7301 16.3961 24.5253 16.3961 24.283V22.8728H39.6617C40.6092 22.8728 41.38 22.1018 41.38 21.1542V10.3987H42.7896C43.037 10.3987 43.2381 10.5992 43.2381 10.8458V24.2831C43.2381 24.5254 43.0327 24.7302 42.7896 24.7302H37.3796C37.029 24.7302 36.7446 25.0145 36.7446 25.3651C36.7446 25.7157 37.029 26 37.3796 26H42.7896C43.7371 26 44.5079 25.2298 44.5079 24.2831V10.8458C44.5079 9.89911 43.7371 9.12889 42.7896 9.12889ZM40.1101 21.1542C40.1101 21.3975 39.9048 21.603 39.6617 21.603H26.6473V20.2019C26.6473 19.8513 26.363 19.567 26.0124 19.567C25.6618 19.567 25.3775 19.8513 25.3775 20.2019V21.603H13.7183C13.4752 21.603 13.2698 21.3975 13.2698 21.1542V7.71867C13.2698 7.47537 13.4752 7.26984 13.7183 7.26984H25.3775V8.66927C25.3775 9.01987 25.6618 9.30419 26.0124 9.30419C26.363 9.30419 26.6473 9.01987 26.6473 8.66927V7.26984H39.6617C39.9048 7.26984 40.1101 7.47537 40.1101 7.71867V21.1542Z" fill="#B79265"/>
<path d="M23.9546 14.8011L19.9577 11.5008V9.97981C19.9577 9.62921 19.6733 9.34489 19.3227 9.34489C18.9721 9.34489 18.6878 9.62921 18.6878 9.97981V11.5008L14.6926 14.8011C14.4222 15.0244 14.3842 15.4246 14.6074 15.695C14.733 15.847 14.9145 15.9255 15.0973 15.9255C15.2397 15.9255 15.383 15.8779 15.5013 15.7801L18.6878 13.1479V16.705L17.1017 18.4663C16.867 18.7269 16.888 19.1284 17.1486 19.363C17.4091 19.5977 17.8105 19.5767 18.0452 19.3161L19.323 17.8972L20.6023 19.3163C20.7277 19.4554 20.9005 19.5262 21.0741 19.5262C21.2257 19.5262 21.3777 19.4723 21.499 19.3629C21.7595 19.1281 21.7803 18.7266 21.5455 18.4662L19.9577 16.7048V13.1476L23.1461 15.7803C23.4166 16.0036 23.8167 15.9653 24.0399 15.6949C24.2632 15.4246 24.225 15.0244 23.9546 14.8011Z" fill="#B79265"/>
<path d="M26.0124 15.0446C25.6618 15.0446 25.3775 15.329 25.3775 15.6796V17.7138C25.3775 18.0644 25.6618 18.3488 26.0124 18.3488C26.363 18.3488 26.6473 18.0644 26.6473 17.7138V15.6796C26.6473 15.329 26.363 15.0446 26.0124 15.0446Z" fill="#B79265"/>
<path d="M26.0124 10.5223C25.6618 10.5223 25.3775 10.8067 25.3775 11.1573V13.1916C25.3775 13.5422 25.6618 13.8265 26.0124 13.8265C26.363 13.8265 26.6473 13.5422 26.6473 13.1916V11.1573C26.6473 10.8066 26.363 10.5223 26.0124 10.5223Z" fill="#B79265"/>
<path d="M37.8115 15.8368H33.5137C33.1631 15.8368 32.8788 16.1211 32.8788 16.4717C32.8788 16.8223 33.1631 17.1066 33.5137 17.1066H37.8115C38.1621 17.1066 38.4464 16.8223 38.4464 16.4717C38.4464 16.1211 38.1622 15.8368 37.8115 15.8368Z" fill="#B79265"/>
<path d="M28.946 17.1066H30.3408C30.6914 17.1066 30.9757 16.8223 30.9757 16.4717C30.9757 16.1211 30.6914 15.8368 30.3408 15.8368H28.946C28.5954 15.8368 28.311 16.1211 28.311 16.4717C28.311 16.8223 28.5954 17.1066 28.946 17.1066Z" fill="#B79265"/>
<path d="M37.8115 18.6416H36.0945C35.7439 18.6416 35.4596 18.9259 35.4596 19.2765C35.4596 19.6271 35.7439 19.9114 36.0945 19.9114H37.8115C38.1621 19.9114 38.4464 19.6271 38.4464 19.2765C38.4464 18.9259 38.1622 18.6416 37.8115 18.6416Z" fill="#B79265"/>
<path d="M33.5533 18.6416H28.946C28.5954 18.6416 28.3111 18.9259 28.3111 19.2765C28.3111 19.6271 28.5954 19.9114 28.946 19.9114H33.5533C33.9039 19.9114 34.1883 19.6271 34.1883 19.2765C34.1883 18.9259 33.9039 18.6416 33.5533 18.6416Z" fill="#B79265"/>
<path d="M29.4013 14.0785H33.1825C33.7321 14.0785 34.1792 13.6313 34.1792 13.0817V9.95829C34.1792 9.4087 33.7321 8.96152 33.1825 8.96152H29.4013C28.8517 8.96152 28.4046 9.4087 28.4046 9.95829V13.0817C28.4046 13.6313 28.8517 14.0785 29.4013 14.0785ZM29.6745 10.2314H32.9094V12.8087H29.6745V10.2314Z" fill="#B79265"/>
<path d="M34.5288 24.7302C34.1782 24.7302 33.8938 25.0145 33.8938 25.3651C33.8938 25.7157 34.1782 26 34.5288 26H34.5305C34.8811 26 35.1646 25.7157 35.1646 25.3651C35.1646 25.0145 34.8794 24.7302 34.5288 24.7302Z" fill="#B79265"/>
</svg>
