<svg width="56" height="32" viewBox="0 0 56 32" fill="none" xmlns="http://www.w3.org/2000/svg">
<g clip-path="url(#clip0)">
<path d="M22.6744 23.7898C23.5274 22.7904 23.8854 21.5413 23.6826 20.2727L23.4872 19.0516C23.4868 19.049 23.4864 19.0463 23.4859 19.0436L22.9384 15.6222C22.8899 15.319 22.6284 15.096 22.3213 15.096H15.4168C15.1097 15.096 14.8481 15.319 14.7996 15.6222L14.2464 19.0796C14.2436 19.0944 14.2409 19.1093 14.2392 19.1243L14.0555 20.2728C13.8525 21.5419 14.2105 22.7912 15.0636 23.7907C15.8708 24.7365 17.0266 25.3556 18.2431 25.5153V28.2697C18.0671 28.3524 17.8869 28.4689 17.6988 28.6201C17.69 28.6272 17.6813 28.6346 17.6728 28.6422L15.1463 30.9099C14.9536 31.0828 14.8875 31.3567 14.9801 31.5985C15.0726 31.8403 15.3048 32 15.5637 32H22.1724C22.4313 32 22.6634 31.8403 22.756 31.5985C22.8486 31.3567 22.7825 31.0828 22.5898 30.9099L20.0633 28.6422C20.0548 28.6346 20.0462 28.6272 20.0373 28.6201C19.8492 28.4689 19.669 28.3524 19.493 28.2697V25.5153C20.7101 25.3555 21.8668 24.736 22.6744 23.7898ZM21.7883 16.346L22.1706 18.735C20.7341 19.1719 19.6713 18.9005 18.5526 18.6145C17.6432 18.382 16.7099 18.144 15.6328 18.3266L15.9498 16.346H21.7883ZM16.0145 22.9792C15.5819 22.4724 15.1051 21.6256 15.2898 20.4701L15.4196 19.6588C16.4186 19.3594 17.271 19.5771 18.243 19.8255C18.9766 20.013 19.7648 20.2145 20.6775 20.2145C21.1968 20.2145 21.7568 20.1486 22.3695 19.9784L22.4482 20.4701C22.6329 21.625 22.1561 22.4715 21.7236 22.9783C21.0242 23.7977 19.9314 24.3065 18.8711 24.3065C18.87 24.3065 18.8688 24.3064 18.8676 24.3065C18.8668 24.3065 18.866 24.3065 18.8651 24.3065C17.8055 24.3066 16.7133 23.7981 16.0145 22.9792ZM20.5404 30.7499H17.1959L18.4946 29.5843C18.7465 29.384 18.844 29.3682 18.8681 29.3682C18.8923 29.3682 18.9899 29.384 19.2418 29.5843L20.5404 30.7499Z" fill="#B79265"/>
<path d="M41.0621 27.8281C41.0621 27.78 41.0562 27.7333 41.0459 27.6883L41.0586 23.2717C41.0676 20.4389 40.2893 18.1873 38.6794 16.3883C38.5736 16.2701 38.4716 16.1467 38.373 16.0192C38.3719 16.0179 38.371 16.0165 38.3699 16.0153C37.3417 14.6832 36.7161 12.871 36.7161 11.1696V6.9223C37.5005 6.68461 38.0733 5.95462 38.0733 5.09293C38.0733 4.19318 37.4475 3.43724 36.6084 3.23631L37.0978 0.745374C37.1338 0.561999 37.0859 0.372124 36.9671 0.227812C36.8484 0.0834999 36.6713 0 36.4844 0H31.1178C30.931 0 30.7539 0.0836249 30.6352 0.227937C30.5164 0.372249 30.4685 0.562124 30.5045 0.745499L30.9939 3.23643C30.1548 3.43737 29.529 4.19331 29.529 5.09305C29.529 5.95468 30.1018 6.68468 30.8862 6.92243V11.1697C30.8862 12.871 30.2607 14.683 29.2327 16.0151C29.2311 16.017 29.2297 16.0191 29.228 16.021C29.1298 16.148 29.0282 16.2708 28.9229 16.3885C27.313 18.1875 26.5347 20.4391 26.5437 23.2716L26.5566 27.7588C26.5541 27.7816 26.5525 27.8048 26.5525 27.8282C26.5525 27.8526 26.5543 27.8766 26.557 27.9003L26.5632 30.0353C26.5657 31.1186 27.4478 31.9999 28.5293 31.9999H39.0729C40.1545 31.9999 41.0365 31.1186 41.0391 30.0356L41.045 27.9712C41.0558 27.9252 41.0621 27.8775 41.0621 27.8281ZM32.1362 7.00418H35.4661V11.1696C35.4661 12.0825 35.6143 13.0072 35.8898 13.891L33.802 15.3015L31.7126 13.8909C31.9881 13.0071 32.1363 12.0825 32.1363 11.1696V7.00418H32.1362ZM31.2497 15.0867L33.4523 16.5738C33.5579 16.6451 33.68 16.6808 33.802 16.6808C33.9241 16.6808 34.0462 16.6451 34.1519 16.5737L36.3527 15.0869C36.5435 15.4956 36.7623 15.8889 37.0076 16.26L33.802 18.4266L30.5947 16.2598C30.84 15.8888 31.0588 15.4955 31.2497 15.0867ZM35.7247 1.25L35.3448 3.18362H32.2575L31.8776 1.25H35.7247ZM31.4385 4.43362H31.7348H31.7416H35.8571C35.858 4.43362 35.8588 4.43374 35.8596 4.43374C35.8606 4.43374 35.8615 4.43362 35.8624 4.43362H36.1637C36.5273 4.43362 36.8232 4.72943 36.8232 5.09305C36.8232 5.45762 36.5274 5.75424 36.1637 5.75424H31.4385C31.0748 5.75424 30.779 5.45762 30.779 5.09305C30.779 4.72937 31.0749 4.43362 31.4385 4.43362ZM29.829 17.2511L33.4521 19.6988C33.5578 19.7703 33.68 19.806 33.802 19.806C33.9241 19.806 34.0463 19.7702 34.152 19.6988L37.7734 17.2512C38.779 18.3859 39.4051 19.742 39.6667 21.3622H36.6085C36.2633 21.3622 35.9835 21.642 35.9835 21.9872C35.9835 22.3324 36.2633 22.6122 36.6085 22.6122H39.7943C39.8044 22.8268 39.8093 23.0452 39.8086 23.2681L39.7973 27.2033H27.805L27.7937 23.2679C27.793 23.0451 27.7979 22.8267 27.808 22.6122H30.9938C31.339 22.6122 31.6188 22.3324 31.6188 21.9872C31.6188 21.642 31.339 21.3622 30.9938 21.3622H27.9356C28.1972 19.7418 28.8233 18.3858 29.829 17.2511ZM39.0729 30.75H28.5293C28.1353 30.75 27.8141 30.428 27.8132 30.032L27.8086 28.4531H39.7936L39.7891 30.0323C39.7881 30.428 39.4669 30.75 39.0729 30.75Z" fill="#B79265"/>
<path d="M31.3451 24.9086C31.3451 25.2538 31.6249 25.5336 31.9701 25.5336H35.6464C35.9916 25.5336 36.2714 25.2538 36.2714 24.9086C36.2714 24.5634 35.9916 24.2836 35.6464 24.2836H31.9701C31.625 24.2836 31.3451 24.5634 31.3451 24.9086Z" fill="#B79265"/>
<path d="M33.802 22.6121H33.8038C34.1489 22.6121 34.4279 22.3323 34.4279 21.9871C34.4279 21.642 34.1472 21.3621 33.802 21.3621C33.4568 21.3621 33.177 21.642 33.177 21.9871C33.177 22.3323 33.4568 22.6121 33.802 22.6121Z" fill="#B79265"/>
</g>
<defs>
<clipPath id="clip0">
<rect width="56" height="32" fill="white"/>
</clipPath>
</defs>
</svg>
