<svg width="56" height="32" viewBox="0 0 56 32" fill="none" xmlns="http://www.w3.org/2000/svg">
<path d="M37.8995 25.8995C43.3668 20.4322 43.3668 11.5678 37.8995 6.10051C32.4322 0.633165 23.5678 0.633165 18.1005 6.10051M37.8995 25.8995C32.4322 31.3668 23.5678 31.3668 18.1005 25.8995C12.6332 20.4322 12.6332 11.5678 18.1005 6.10051M37.8995 25.8995L18.1005 6.10051" stroke="#B79265" stroke-width="4" stroke-linecap="round" stroke-linejoin="round"/>
<path d="M37.8995 25.8995C43.3668 20.4322 43.3668 11.5678 37.8995 6.10051C32.4322 0.633165 23.5678 0.633165 18.1005 6.10051M37.8995 25.8995C32.4322 31.3668 23.5678 31.3668 18.1005 25.8995C12.6332 20.4322 12.6332 11.5678 18.1005 6.10051M37.8995 25.8995L18.1005 6.10051" stroke="white" stroke-linecap="round" stroke-linejoin="round"/>
</svg>
