<svg width="512" height="508" viewBox="0 0 512 508" fill="none" xmlns="http://www.w3.org/2000/svg">
<path d="M158.048 146.762H190.104C195.626 146.762 200.104 142.284 200.104 136.762C200.104 131.24 195.626 126.762 190.104 126.762H158.048C152.526 126.762 148.048 131.24 148.048 136.762C148.048 142.284 152.525 146.762 158.048 146.762Z" fill="#B79265"/>
<path d="M241.788 146.762H353.952C359.474 146.762 363.952 142.284 363.952 136.762C363.952 131.24 359.474 126.762 353.952 126.762H241.788C236.266 126.762 231.788 131.24 231.788 136.762C231.788 142.284 236.266 146.762 241.788 146.762Z" fill="#B79265"/>
<path d="M353.952 187.502H322.89C317.368 187.502 312.89 191.98 312.89 197.502C312.89 203.024 317.368 207.502 322.89 207.502H353.953C359.475 207.502 363.953 203.024 363.953 197.502C363.953 191.98 359.475 187.502 353.952 187.502Z" fill="#B79265"/>
<path d="M158.048 207.502H271.234C276.756 207.502 281.234 203.024 281.234 197.502C281.234 191.98 276.756 187.502 271.234 187.502H158.048C152.526 187.502 148.048 191.98 148.048 197.502C148.048 203.024 152.525 207.502 158.048 207.502V207.502Z" fill="#B79265"/>
<path d="M501.65 169.187C501.609 169.148 501.564 169.113 501.522 169.074C501.429 168.988 501.333 168.906 501.237 168.824C501.165 168.762 501.097 168.695 501.023 168.635L425.961 107.978V92.321H434.599C446.713 92.321 456.57 82.462 456.57 70.343V45.167C456.57 20.262 436.317 0 411.424 0H131.156C106.261 0 86.009 20.262 86.009 45.167V108.001L10.977 168.635C10.902 168.696 10.833 168.764 10.759 168.827C10.665 168.908 10.571 168.988 10.479 169.073C10.437 169.112 10.391 169.147 10.349 169.187C3.676 175.569 0 184.154 0 193.358V474.441C0 492.905 15.038 507.96 33.545 508H120.944C126.466 508 130.944 503.522 130.944 498C130.944 492.478 126.466 488 120.944 488H35.897L160.605 374.749L249.054 460.149C250.992 462.019 253.496 462.955 256 462.955C258.504 462.955 261.009 462.019 262.946 460.149L351.382 374.761L476.102 488H210.812C205.29 488 200.812 492.478 200.812 498C200.812 503.522 205.29 508 210.812 508H478.456C496.952 508 512 492.945 512 474.441V193.358C512 184.154 508.324 175.569 501.65 169.187V169.187ZM479.375 176.854L425.962 225.344V133.691L479.375 176.854ZM411.424 20C425.29 20 436.57 31.29 436.57 45.167V70.344C436.57 71.398 435.649 72.322 434.599 72.322H178.274C177.223 72.322 176.302 71.398 176.302 70.344V45.167C176.302 35.858 173.471 27.196 168.627 20H411.424ZM106.009 45.167C106.009 31.29 117.29 20 131.156 20C145.022 20 156.302 31.29 156.302 45.167V70.344C156.302 82.462 166.158 92.322 178.274 92.322H405.962V243.503L369.037 277.025C365.699 270.74 361.485 264.825 356.353 259.503C343.756 246.45 326.503 239.69 307.741 240.462C290.02 241.192 272.907 248.472 259.556 260.956L258.664 261.789C257.778 262.618 256.84 263.496 255.999 264.261C255.158 263.496 254.22 262.618 253.334 261.789L252.446 260.96C239.092 248.472 221.978 241.192 204.258 240.462C185.528 239.691 168.243 246.45 155.642 259.507C150.512 264.828 146.299 270.741 142.962 277.025L106.009 243.477V45.167V45.167ZM86.009 133.716V225.319L32.626 176.855L86.009 133.716ZM20.048 475.377C20.027 475.066 20 474.757 20 474.441V193.358C20 193.051 20.024 192.749 20.044 192.445L135.53 297.289C130.879 318.494 134.821 341.332 147.366 359.756L20.048 475.377ZM342.078 355.943L256 439.055L169.922 355.944C148.065 333.138 148.103 296.141 170.037 273.391C187.411 255.39 218.253 256.364 238.791 275.571L239.669 276.392C245.695 282.032 249.677 285.756 256 285.756C262.323 285.756 266.305 282.031 272.331 276.392L273.213 275.567C293.745 256.368 324.586 255.388 341.959 273.387C363.897 296.141 363.936 333.138 342.078 355.943ZM492 474.441C492 474.758 491.974 475.068 491.953 475.379L364.613 359.761C377.169 341.334 381.122 318.5 376.47 297.289L491.956 192.445C491.977 192.748 492 193.051 492 193.358V474.441Z" fill="#B79265"/>
<path d="M165.878 488C160.356 488 155.878 492.478 155.878 498C155.878 503.522 160.356 508 165.878 508H165.935C171.457 508 175.907 503.522 175.907 498C175.907 492.478 171.4 488 165.878 488Z" fill="#B79265"/>
</svg>
