<svg width="300" height="31" viewBox="0 0 300 31" fill="none" xmlns="http://www.w3.org/2000/svg">
<path d="M68.2585 28.243C69.433 25.7624 70.8367 23.6583 73.2553 22.1182C74.8264 21.1142 76.5726 20.434 78.3451 19.8467C78.2429 19.9211 78.1344 19.9846 78.0353 20.0621C76.2674 21.4349 75.0201 23.1842 73.0508 24.3369C72.4899 24.6638 72.9981 25.5362 73.559 25.2077C76.1667 23.6831 78.0724 21.4287 80.5592 19.7755C79.4034 24.9179 73.1934 27.9253 68.2585 28.243ZM8.43281 16.5852C6.66803 15.9515 4.79945 14.9723 3.39879 13.7095C2.38857 12.8 -0.558398 8.83201 2.08334 8.5965C3.04087 8.51128 4.72508 9.42698 5.61908 9.7632C7.06933 10.3086 8.47464 10.9299 9.81023 11.7124C12.1607 13.0898 14.0293 14.8948 15.4609 17.1461C14.2167 16.7324 12.9757 16.2816 11.7408 15.7764C11.1427 15.5316 10.8809 16.5047 11.4743 16.7479C12.139 17.0206 12.8099 17.2422 13.4792 17.4885C11.7671 17.439 10.0767 17.174 8.43281 16.5852ZM2.74648 27.4311C7.37146 24.6778 12.3714 23.2244 17.7169 23.1733C16.0621 23.8736 14.4445 24.6948 12.8781 25.6679C12.328 26.0103 12.8347 26.881 13.3863 26.5371C15.2239 25.3952 17.1234 24.4562 19.0757 23.7001C15.1464 29.0068 8.62648 30.7205 2.74648 27.4311ZM45.1537 8.76074C48.079 8.74059 50.9501 9.03653 53.7855 9.82053C56.2367 10.4992 59.7259 11.5016 61.6735 13.5252C59.4439 12.9131 57.1942 12.3724 54.9119 11.9324C54.2798 11.81 54.0086 12.7814 54.6439 12.9038C56.7604 13.3098 58.8459 13.8134 60.9174 14.3665C55.1738 15.5038 48.2464 14.1108 45.1537 8.76074ZM144.396 20.6524C139.004 18.3748 133.571 16.6348 128.095 15.355C126.195 13.0588 124.009 11.1034 121.572 9.5122C119.256 3.92814 111.392 0.161529 105.576 0.598461C104.935 0.646493 104.928 1.65516 105.576 1.60713C110.322 1.24921 117.173 4.1466 119.928 8.51593C118.693 7.82335 117.406 7.21288 116.053 6.70622C115.444 6.47846 115.182 7.45149 115.785 7.6777C116.969 8.12238 118.106 8.64763 119.195 9.2426C114.364 9.43008 107.736 7.11682 106.877 1.98053C106.771 1.34218 105.799 1.61332 105.906 2.24858C106.933 8.39818 115.312 10.871 120.672 10.1087C122.799 11.4567 124.719 13.1022 126.437 14.9894C116.877 12.924 107.19 12.2639 97.3703 12.7551C97.4292 12.4251 97.1813 12.0377 96.7676 12.1663C95.9681 12.4158 95.1732 12.6823 94.3784 12.9472C89.7891 13.2804 85.1687 13.8412 80.519 14.6283C77.2063 15.1892 73.8705 15.8059 70.5206 16.421C68.1392 15.4991 65.7299 14.6888 63.2942 13.9729C61.8595 11.5869 58.9776 10.5457 56.4536 9.62066C52.6343 8.22154 48.6755 7.66685 44.6239 7.74742C44.2969 7.75362 44.1373 8.01237 44.1389 8.26493C43.9932 8.40902 43.9189 8.62749 44.0397 8.85835C47.3973 15.3101 55.7997 16.7913 62.2979 15.0823C62.4653 15.0389 62.5644 14.9367 62.6156 14.8158L62.6837 14.8391C62.7813 14.9212 62.8945 14.9506 63.0091 14.9398C64.8777 15.4883 66.7261 16.1096 68.5606 16.7789C51.3545 19.9196 33.8059 22.7286 16.9499 17.6156C13.5877 11.4242 7.23822 9.07372 0.825222 7.16795C0.56957 7.09512 0.264335 7.25936 0.203908 7.52121C-1.69102 15.6928 10.0891 19.0534 16.1551 18.4089C19.6862 19.5167 23.2544 20.2961 26.8522 20.7764C24.449 21.0444 22.1094 21.5728 19.8457 22.3537C19.7652 22.2576 19.6443 22.1894 19.4847 22.1817C13.0175 21.8749 6.95312 23.5514 1.48527 26.9973C1.15834 27.2033 1.16144 27.6604 1.48527 27.868C8.38013 32.2761 16.3875 29.9814 20.6421 23.1966C20.653 23.1764 20.6514 23.1609 20.6607 23.1408C23.7998 22.1135 27.0753 21.5635 30.5057 21.5542C30.7644 21.5526 30.9131 21.3915 30.9674 21.1994C45.1197 22.2793 59.602 19.4826 73.5931 16.8889C79.3492 15.8214 85.13 14.8189 90.9403 14.1434C88.2799 15.1102 85.6506 16.1576 83.0677 17.3212C82.3039 17.6652 81.54 18.0107 80.7901 18.3872C80.6878 18.2168 80.5019 18.1083 80.2556 18.1842C77.4279 19.0488 74.5305 19.9691 72.0855 21.6874C69.6049 23.429 68.2306 25.8042 67.0221 28.5281C66.8718 28.8627 67.0438 29.2873 67.4559 29.2857C73.3235 29.2594 80.8505 25.5176 81.6748 19.1092C81.8654 19.0054 82.0482 18.8939 82.2481 18.7978C86.4718 16.796 90.8535 15.1505 95.2941 13.7049C99.5224 13.3485 103.766 13.1967 108.03 13.364C114.59 13.6228 121.076 14.5695 127.426 16.1018C127.557 16.2366 127.712 16.2599 127.853 16.2087C133.318 17.5536 138.682 19.323 143.89 21.5217C144.477 21.7696 144.991 20.9034 144.396 20.6524Z" fill="#B79265"/>
<path d="M280.925 23.6986C282.875 24.4532 284.772 25.3936 286.614 26.5371C287.164 26.8795 287.671 26.0088 287.122 25.6679C285.556 24.6949 283.938 23.8721 282.283 23.1718C287.63 23.2229 292.63 24.6794 297.254 27.428C291.371 30.719 284.849 29.0007 280.925 23.6986ZM289.77 11.9572C291.219 11.057 292.785 10.3628 294.381 9.76323C295.275 9.42701 296.959 8.50976 297.917 8.59652C300.559 8.83049 297.612 12.8001 296.602 13.7096C295.395 14.7957 293.921 15.5859 292.437 16.215C290.522 17.0268 288.554 17.4126 286.538 17.4808C287.201 17.2376 287.866 17.0176 288.526 16.748C289.118 16.5047 288.859 15.5301 288.258 15.7765C287.022 16.2831 285.777 16.734 284.53 17.1462C285.873 15.0328 287.601 13.3067 289.77 11.9572ZM226.745 22.1166C229.154 23.6521 230.567 25.7686 231.742 28.243C226.805 27.9254 220.595 24.918 219.439 19.7755C221.929 21.4287 223.826 23.6769 226.441 25.2077C227.002 25.5362 227.509 24.6654 226.949 24.337C225.002 23.1981 223.756 21.4721 222.016 20.1009C221.898 20.0079 221.77 19.932 221.65 19.8452C223.425 20.434 225.172 21.1142 226.745 22.1166ZM254.851 8.75146C251.763 14.1062 244.828 15.5038 239.083 14.3665C241.153 13.8118 243.24 13.3098 245.355 12.9023C245.992 12.7799 245.722 11.8084 245.087 11.9308C242.781 12.3755 240.508 12.924 238.257 13.5422C241.706 9.55561 250.056 8.72048 254.851 8.75146ZM280.514 22.1817C280.356 22.1879 280.237 22.2561 280.155 22.3537C277.891 21.5728 275.551 21.0445 273.145 20.7749C276.744 20.2961 280.313 19.5167 283.845 18.4089C289.913 19.0535 301.69 15.6944 299.796 7.52124C299.736 7.25939 299.428 7.0936 299.175 7.16797C292.762 9.07374 286.413 11.4211 283.05 17.6141C266.196 22.7271 248.641 19.9227 231.433 16.7805C233.27 16.1111 235.121 15.4883 236.99 14.9398C237.106 14.9506 237.219 14.9212 237.315 14.8375C237.338 14.8298 237.361 14.822 237.383 14.8174C237.434 14.9367 237.533 15.0374 237.701 15.0808C244.201 16.7913 252.603 15.3101 255.961 8.85837C256.081 8.62596 256.007 8.40905 255.861 8.26495C255.863 8.0124 255.703 7.75365 255.376 7.74745C251.323 7.66533 247.368 8.22157 243.547 9.62068C241.02 10.5472 238.141 11.5853 236.706 13.973C234.269 14.6903 231.858 15.5007 229.475 16.4226C226.127 15.8059 222.791 15.1893 219.48 14.6284C214.827 13.8382 210.205 13.2757 205.611 12.9426C204.819 12.6808 204.029 12.4143 203.231 12.1664C202.821 12.0378 202.573 12.422 202.628 12.752C192.81 12.2609 183.123 12.9225 173.565 14.9878C175.28 13.1006 177.201 11.4552 179.328 10.1087C184.693 10.8726 193.067 8.3982 194.094 2.24706C194.2 1.61335 193.228 1.34065 193.123 1.97901C192.264 7.11684 185.636 9.43011 180.805 9.24263C181.894 8.6461 183.028 8.12086 184.215 7.67618C184.816 7.45151 184.556 6.47694 183.947 6.7047C182.595 7.21135 181.307 7.82337 180.072 8.51441C182.832 4.14353 189.703 1.25079 194.424 1.6056C195.07 1.65363 195.067 0.646518 194.424 0.598486C188.605 0.161553 180.745 3.92506 178.428 9.51222C175.989 11.1035 173.805 13.0588 171.905 15.3519C166.43 16.6333 160.996 18.3733 155.602 20.6509C155.007 20.9019 155.52 21.7711 156.111 21.5217C161.317 19.3231 166.676 17.5505 172.139 16.2072C172.285 16.2614 172.446 16.2397 172.584 16.0941C178.698 14.6191 184.942 13.6925 191.257 13.3981C195.769 13.1874 200.259 13.3362 204.731 13.7142C209.165 15.1552 213.539 16.7991 217.752 18.7978C217.951 18.8923 218.133 19.0054 218.325 19.1092C219.15 25.5176 226.675 29.2594 232.543 29.2842C232.957 29.2858 233.127 28.8628 232.978 28.5265C231.77 25.8042 230.391 23.4336 227.915 21.6859C225.476 19.9661 222.568 19.0473 219.745 18.1827C219.497 18.1083 219.311 18.2168 219.21 18.3857C218.46 18.0123 217.693 17.6637 216.933 17.3212C214.359 16.1607 211.737 15.1164 209.088 14.1511C214.886 14.8236 220.657 15.823 226.406 16.8874C240.4 19.4796 254.879 22.2793 269.031 21.1994C269.084 21.3915 269.236 21.5511 269.493 21.5527C272.927 21.5635 276.2 22.1136 279.338 23.1393C279.346 23.1579 279.346 23.1764 279.358 23.1966C283.611 29.9814 291.617 32.2761 298.515 27.8665C298.839 27.6604 298.84 27.2034 298.515 26.9973C293.046 23.5499 286.98 21.8734 280.514 22.1817Z" fill="#B79265"/>
</svg>
